<svg width="825" height="823" viewBox="0 0 825 823" fill="none" xmlns="http://www.w3.org/2000/svg">
<g id="Group 1">
<path id="xbox-x2" d="M129 713.5L57 813H89L146 736L202 813.5H234.5L162.5 713.5L229 621H196.5L145.5 691L94.5 621.5H62L129 713.5Z" fill="#D9D9D9" stroke="white"/>
<path id="xbox-x1" d="M664 714.5L592 814H624L681 737L737 814.5H769.5L697.5 714.5L764 622H731.5L680.5 692L629.5 622.5H597L664 714.5Z" fill="#D9D9D9" stroke="white"/>
<g id="xbox-logo" filter="url(#filter0_d_10_4)">
<path id="Vector 6" d="M412 379.5C359.384 411.714 302.999 490.5 303 516C303 541.5 368 572.5 412 572.5C455.999 572.5 523.5 544 523.5 516C523.5 488 468.578 425.983 412 379.5Z" fill="#D9D9D9" stroke="white"/>
<path id="Vector 7" d="M457 338.5C505.578 398.157 546.5 470 539.5 507.5L556.5 481.5C570.5 463 580 414.5 568.5 370C558.996 336.125 549.937 319.263 524.5 294.5C510 295 479.264 312.862 457 338.5Z" fill="#D9D9D9" stroke="white"/>
<path id="Vector 8" d="M367.632 339C319.054 398.657 278.132 470.5 285.132 508L268.132 482C254.132 463.5 244.632 415 256.132 370.5C265.636 336.625 274.695 319.763 300.132 295C314.632 295.5 345.369 313.362 367.632 339Z" fill="#D9D9D9" stroke="white"/>
<path id="Vector 9" d="M497 274.156C458.471 276.226 440.904 282.075 414 297.656C382.133 281.589 363.771 276.057 330 273.5C352.621 259.792 366.372 255.582 392 251.656C405.699 250.692 415.705 250.876 435 251.656C463.049 257.107 476.049 262.534 497 274.156Z" fill="#D9D9D9" stroke="white"/>
</g>
<path id="xbox-b" fill-rule="evenodd" clip-rule="evenodd" d="M353 814H250V727.5H207.5L225.5 703H251V621.5H348C378.388 625.667 395.5 639 397 664C398.5 689 391.836 700.758 373.5 713.5C391.319 722.065 400.072 728.437 406 749C405.861 757.086 405.736 761.59 404.5 769C397.416 796.847 387.114 807.143 353 814ZM280.5 727.5V788.5H350.5C354 788.5 370.5 781 375 767C375 767 376 763.5 375 751.5C374 739.5 362 729 343.5 727.5H280.5ZM280.5 703V646.5C280.5 646.5 338 646.5 347 647.5C356 648.5 367.5 658 368 666.5C368.5 675 368 683 368 683C363 694.5 354 702 343.5 703C333 704 280.5 703 280.5 703Z" fill="#D9D9D9" stroke="black"/>
<g id="xbox-o">
<path fill-rule="evenodd" clip-rule="evenodd" d="M604 716.5C604 773.109 561.467 819 509 819C456.533 819 414 773.109 414 716.5C414 659.891 456.533 614 509 614C561.467 614 604 659.891 604 716.5ZM573 717C573 758.421 543.899 792 508 792C472.101 792 443 758.421 443 717C443 675.579 472.101 642 508 642C543.899 642 573 675.579 573 717Z" fill="#D9D9D9"/>
<path d="M508 792C543.899 792 573 758.421 573 717C573 675.579 543.899 642 508 642C472.101 642 443 675.579 443 717C443 758.421 472.101 792 508 792Z" fill="#1E1E1E"/>
<path d="M508 792.5C544.239 792.5 573.5 758.628 573.5 717C573.5 675.372 544.239 641.5 508 641.5C471.761 641.5 442.5 675.372 442.5 717C442.5 758.628 471.761 792.5 508 792.5ZM572.5 717C572.5 758.215 543.558 791.5 508 791.5C472.442 791.5 443.5 758.215 443.5 717C443.5 675.785 472.442 642.5 508 642.5C543.558 642.5 572.5 675.785 572.5 717ZM603.5 716.5C603.5 772.87 561.156 818.5 509 818.5C456.844 818.5 414.5 772.87 414.5 716.5C414.5 660.13 456.844 614.5 509 614.5C561.156 614.5 603.5 660.13 603.5 716.5Z" stroke="#733A3A"/>
</g>
</g>
<defs>
<filter id="filter0_d_10_4" x="0.5" y="0.5" width="823.632" height="822.5" filterUnits="userSpaceOnUse" color-interpolation-filters="sRGB">
<feFlood flood-opacity="0" result="BackgroundImageFix"/>
<feColorMatrix in="SourceAlpha" type="matrix" values="0 0 0 0 0 0 0 0 0 0 0 0 0 0 0 0 0 0 127 0" result="hardAlpha"/>
<feOffset/>
<feGaussianBlur stdDeviation="125"/>
<feComposite in2="hardAlpha" operator="out"/>
<feColorMatrix type="matrix" values="0 0 0 0 0.945833 0 0 0 0 0.914306 0 0 0 0 0.914306 0 0 0 0.7 0"/>
<feBlend mode="normal" in2="BackgroundImageFix" result="effect1_dropShadow_10_4"/>
<feBlend mode="normal" in="SourceGraphic" in2="effect1_dropShadow_10_4" result="shape"/>
</filter>
</defs>
</svg>
