<svg width="208" height="208" viewBox="0 0 208 208" fill="none" xmlns="http://www.w3.org/2000/svg">
<g id="charingan" filter="url(#filter0_d_4_15)">
<circle id="Ellipse 1" cx="104" cy="100" r="97.5" fill="#AC0000" stroke="black" stroke-width="5"/>
<circle id="Ellipse 2" cx="104" cy="100" r="20" fill="black"/>
<g id="aye">
<circle id="Ellipse 3" cx="104" cy="101" r="52" stroke="black" stroke-width="2"/>
<path id="Vector 1" d="M46.5 117C44.9089 119.56 43.5099 125.031 44 125.5C38.3193 121.031 35.0265 118.701 33.5 107.5C31.7227 112.208 31.1766 115.103 31.5 121C34.0959 134.957 43.0001 142.5 51 143C59 143.5 64.6437 141.465 71.5 135.5C74.8224 129.417 75.3299 125.919 73.5 119.5C71.47 115.337 70.4614 112.954 64 110.5C61.1537 109.569 59.3005 109.406 55 110.5C51.7314 111.926 49.9049 112.599 46.5 117Z" fill="black" stroke="black"/>
<path id="Vector 3" d="M146.706 141.377C149.676 141.89 155.272 141.132 155.523 140.501C153.515 147.444 152.592 151.371 142.784 156.993C147.815 156.872 150.703 156.291 156.047 153.776C168.007 146.129 171.654 135.043 169.113 127.441C166.572 119.839 162.566 115.373 154.463 111.259C147.578 110.464 144.145 111.308 138.883 115.414C135.788 118.859 133.957 120.689 134.11 127.599C134.316 130.586 134.861 132.365 137.49 135.94C140.04 138.434 141.349 139.874 146.706 141.377Z" fill="black" stroke="black"/>
<path id="Vector 2" d="M118.124 41.8281C116.839 39.1019 113.004 34.9561 112.344 35.113C119.182 32.7694 122.927 31.2702 133.161 36.0708C130.173 32.0216 128.039 29.9913 122.911 27.0603C109.782 21.6608 98.6124 25.0416 93.8482 31.4876C89.0841 37.9337 87.7283 43.7781 89.0137 52.7744C92.3171 58.8673 94.9792 61.1933 101.363 63.1425C105.961 63.6984 108.51 64.1459 114.079 60.0527C116.406 58.1681 117.55 56.7005 118.967 52.4953C119.544 48.976 119.971 47.077 118.124 41.8281Z" fill="black" stroke="black"/>
</g>
</g>
<defs>
<filter id="filter0_d_4_15" x="0" y="0" width="208" height="208" filterUnits="userSpaceOnUse" color-interpolation-filters="sRGB">
<feFlood flood-opacity="0" result="BackgroundImageFix"/>
<feColorMatrix in="SourceAlpha" type="matrix" values="0 0 0 0 0 0 0 0 0 0 0 0 0 0 0 0 0 0 127 0" result="hardAlpha"/>
<feOffset dy="4"/>
<feGaussianBlur stdDeviation="2"/>
<feComposite in2="hardAlpha" operator="out"/>
<feColorMatrix type="matrix" values="0 0 0 0 0 0 0 0 0 0 0 0 0 0 0 0 0 0 0.25 0"/>
<feBlend mode="normal" in2="BackgroundImageFix" result="effect1_dropShadow_4_15"/>
<feBlend mode="normal" in="SourceGraphic" in2="effect1_dropShadow_4_15" result="shape"/>
</filter>
</defs>
</svg>
