<svg width="715" height="568" viewBox="0 0 715 568" fill="none" xmlns="http://www.w3.org/2000/svg">
<g id="Group 2">
<path id="xbox-x2" d="M73 463.5L1 563H33L90 486L146 563.5H178.5L106.5 463.5L173 371H140.5L89.5 441L38.5 371.5H6L73 463.5Z" fill="#D9D9D9" stroke="white"/>
<path id="xbox-x1" d="M608 464.5L536 564H568L625 487L681 564.5H713.5L641.5 464.5L708 372H675.5L624.5 442L573.5 372.5H541L608 464.5Z" fill="#D9D9D9" stroke="white"/>
<g id="xbox-b">
<g id="Group 1">
<path id="Vector 2" d="M169 453L151.5 477.5V478H194.5V564C194.5 564 280 565.5 295 564C310 562.5 319.121 560.031 333.5 548.5C342.295 540.361 346.194 534.306 349 517.5C350.544 506.268 350.038 500.316 346 490.5C337.884 473.465 330.339 469.626 316.5 463.5C316.5 463.5 341 447.5 341.5 431C342 414.5 341 411 341 411C334.373 387.426 316.5 374.407 292 371.5C267.5 368.593 194 371 194 371L193.5 453H169Z" fill="#D9D9D9" stroke="white"/>
<path id="Vector 3" d="M224 538.5V478.5H293C308.193 481.464 318.649 489.5 319.5 501C320.351 512.5 320 513 319.5 518C319 523 305.424 535.483 293 538.5H224Z" fill="#1E1E1E" stroke="white"/>
<path id="Vector 4" d="M224 397V453H289C300.95 450.158 306.279 446.58 311.5 434C311.5 434 312.5 424 311.5 416C310.5 408 301 398 290 397C279 396 224 397 224 397Z" fill="#1E1E1E" stroke="white"/>
</g>
</g>
<g id="xbox-o">
<path id="Ellipse 1" d="M516.5 467C516.5 508.215 487.558 541.5 452 541.5C416.442 541.5 387.5 508.215 387.5 467C387.5 425.785 416.442 392.5 452 392.5C487.558 392.5 516.5 425.785 516.5 467Z" fill="#D9D9D9" stroke="white"/>
<path id="Ellipse 2" d="M548.5 465C548.5 521.64 505.489 567.5 452.5 567.5C399.511 567.5 356.5 521.64 356.5 465C356.5 408.36 399.511 362.5 452.5 362.5C505.489 362.5 548.5 408.36 548.5 465Z" fill="#D9D9D9" stroke="white"/>
</g>
<g id="xbox-logo">
<path id="Vector 6" d="M356 129.5C303.384 161.714 246.999 240.5 247 266C247 291.5 312 322.5 356 322.5C399.999 322.5 467.5 294 467.5 266C467.5 238 412.578 175.983 356 129.5Z" fill="#D9D9D9" stroke="white"/>
<path id="Vector 7" d="M401 88.5C449.578 148.157 490.5 220 483.5 257.5L500.5 231.5C514.5 213 524 164.5 512.5 120C502.996 86.125 493.937 69.2627 468.5 44.5C454 45 423.264 62.8624 401 88.5Z" fill="#D9D9D9" stroke="white"/>
<path id="Vector 8" d="M311.632 89C263.054 148.657 222.132 220.5 229.132 258L212.132 232C198.132 213.5 188.632 165 200.132 120.5C209.636 86.625 218.695 69.7627 244.132 45C258.632 45.5 289.369 63.3624 311.632 89Z" fill="#D9D9D9" stroke="white"/>
<path id="Vector 9" d="M441 24.1559C402.471 26.2257 384.904 32.0747 358 47.6559C326.133 31.5888 307.771 26.0569 274 23.5C296.621 9.79231 310.372 5.58181 336 1.65592C349.699 0.691732 359.705 0.875816 379 1.65592C407.049 7.10666 420.049 12.534 441 24.1559Z" fill="#D9D9D9" stroke="white"/>
</g>
<path id="Ellipse 3" d="M516.5 467C516.5 508.215 487.558 541.5 452 541.5C416.442 541.5 387.5 508.215 387.5 467C387.5 425.785 416.442 392.5 452 392.5C487.558 392.5 516.5 425.785 516.5 467Z" fill="#1E1E1E" stroke="white"/>
</g>
</svg>
